<?xml version="1.0" encoding="UTF-8"?>
<svg width="120" height="120" viewBox="0 0 120 120" xmlns="http://www.w3.org/2000/svg">
    <!-- Strawberry body -->
    <path d="M60,20 C80,20 100,40 100,60 C100,80 80,100 60,100 C40,100 20,80 20,60 C20,40 40,20 60,20 Z" fill="#FF6B6B"/>
    
    <!-- Strawberry seeds -->
    <circle cx="45" cy="45" r="2" fill="#FF8E8E"/>
    <circle cx="55" cy="50" r="2" fill="#FF8E8E"/>
    <circle cx="65" cy="45" r="2" fill="#FF8E8E"/>
    <circle cx="50" cy="60" r="2" fill="#FF8E8E"/>
    <circle cx="60" cy="65" r="2" fill="#FF8E8E"/>
    <circle cx="70" cy="60" r="2" fill="#FF8E8E"/>
    <circle cx="45" cy="75" r="2" fill="#FF8E8E"/>
    <circle cx="55" cy="80" r="2" fill="#FF8E8E"/>
    <circle cx="65" cy="75" r="2" fill="#FF8E8E"/>
    
    <!-- Strawberry stem -->
    <path d="M60,10 C60,10 55,15 55,20" stroke="#2E7D32" stroke-width="3" fill="none"/>
    <circle cx="55" cy="20" r="3" fill="#2E7D32"/>
</svg> 